<?xml version="1.0" encoding="UTF-8" standalone="no"?>
<!-- Created with Inkscape (http://www.inkscape.org/) -->

<svg
   width="793.70081"
   height="1122.5197"
   viewBox="0 0 210 297"
   version="1.1"
   id="svg8774"
   inkscape:export-filename="C:\Users\TarunSwift3\Downloads\Rakt Seva Logo with bg.png"
   inkscape:export-xdpi="2000"
   inkscape:export-ydpi="2000"
   inkscape:version="1.1 (c68e22c387, 2021-05-23)"
   sodipodi:docname="Rakt Seva logo with bg.svg"
   xmlns:inkscape="http://www.inkscape.org/namespaces/inkscape"
   xmlns:sodipodi="http://sodipodi.sourceforge.net/DTD/sodipodi-0.dtd"
   xmlns="http://www.w3.org/2000/svg"
   xmlns:svg="http://www.w3.org/2000/svg">
  <sodipodi:namedview
     id="namedview8776"
     pagecolor="#ffffff"
     bordercolor="#999999"
     borderopacity="1"
     inkscape:pageshadow="0"
     inkscape:pageopacity="0"
     inkscape:pagecheckerboard="0"
     inkscape:document-units="px"
     showgrid="false"
     units="px"
     inkscape:zoom="1.0104048"
     inkscape:cx="458.72704"
     inkscape:cy="555.71787"
     inkscape:window-width="1920"
     inkscape:window-height="991"
     inkscape:window-x="-9"
     inkscape:window-y="-9"
     inkscape:window-maximized="1"
     inkscape:current-layer="layer1" />
  <defs
     id="defs8771" />
  <g
     inkscape:label="Layer 1"
     inkscape:groupmode="layer"
     id="layer1">
    <rect
       style="fill:#f4d7d7;stroke:#000000;stroke-width:0.000930872;stroke-linecap:round;stroke-linejoin:bevel;paint-order:fill markers stroke"
       id="rect10614"
       width="149.99907"
       height="149.99907"
       x="22.000465"
       y="64.203888"
       ry="11.850371" />
    <path
       id="rect9414"
       style="fill:#d40000;stroke:#000000;stroke-width:0.00110374;stroke-linecap:round;stroke-linejoin:bevel;paint-order:fill markers stroke"
       d="m 96.891518,70.978487 c 0,0 53.988462,60.989523 46.930412,95.859333 -3.9113,19.32346 -20.67088,38.82609 -44.618214,38.82608 -23.947332,0 -42.64704,-20.20612 -46.930415,-40.39774 -7.215546,-34.01368 44.618217,-94.287673 44.618217,-94.287673 z"
       sodipodi:nodetypes="cazac" />
    <path
       id="path10214"
       style="fill:#ff2a2a;stroke:#000000;stroke-width:0.00092322;stroke-linecap:round;stroke-linejoin:bevel;paint-order:fill markers stroke"
       d="m 97.101206,79.034045 c 0,0 43.967704,52.396595 38.219694,82.353525 -3.18533,16.60093 -16.83418,33.35581 -36.336662,33.3558 -19.502485,0 -34.731354,-17.35925 -38.219695,-34.70603 -5.876274,-29.22143 36.336663,-81.003295 36.336663,-81.003295 z"
       sodipodi:nodetypes="cazac" />
    <path
       id="path10309"
       style="fill:#ff5555;stroke:#000000;stroke-width:0.000723818;stroke-linecap:round;stroke-linejoin:bevel;paint-order:fill markers stroke"
       d="m 97.101207,79.034041 c 0,0 33.769173,41.933879 29.354453,65.908909 -2.44648,13.28601 -12.92939,26.69522 -27.908194,26.69519 -14.978779,0 -26.675233,-13.89287 -29.354432,-27.77579 C 64.67979,120.47594 97.101207,79.034041 97.101207,79.034041 Z"
       sodipodi:nodetypes="cazac" />
    <path
       id="path10409"
       style="fill:#ffaaaa;stroke:#000000;stroke-width:0.000517486;stroke-linecap:round;stroke-linejoin:bevel;paint-order:fill markers stroke"
       d="m 97.101206,79.034042 c 0,0 24.179374,29.934798 21.018364,47.049578 -1.75174,9.4843 -9.25771,19.05656 -19.982814,19.05653 -10.725094,0 -19.099981,-9.91753 -21.018339,-19.82794 -3.231571,-16.69456 19.982789,-46.278168 19.982789,-46.278168 z"
       sodipodi:nodetypes="cazac" />
  </g>
</svg>
